<?xml version="1.0" encoding="UTF-8"?>
<svg id="Calque_1" xmlns="http://www.w3.org/2000/svg" version="1.1" viewBox="0 0 900 500">
  <!-- Generator: Adobe Illustrator 29.6.1, SVG Export Plug-In . SVG Version: 2.1.1 Build 9)  -->
  <defs>
    <style>
      .st0 {
        fill: #fff;
      }

      .st1 {
        fill: #1b58ff;
      }
    </style>
  </defs>
  <path class="st1" d="M196.55,153c93.4-10.02,147.56,100.99,81.4,166.61-44.14,43.79-121.39,34.58-152.98-19.2-10.24-17.43-10.99-34.98-18.31-52.19-3.24-7.62-12.99-14.28-13.8-19.63-1.86-12.44,11.73-12.49,19.13-17.85,11.88-8.62,20.79-25.18,32.92-35.13,13.5-11.08,34.13-20.73,51.64-22.61h0ZM195.26,160.37c-21.5,2.52-47.65,17.54-59.4,35.88-6.5,10.14-15.13,42.53-16.76,54.98-8.67,66.1,73.45,109.77,130.99,80.13,88.02-45.34,48.21-183.04-54.83-170.99Z"/>
  <g>
    <path class="st0" d="M383.11,261.64c0,9.72-7.02,16.38-16.83,16.38h-31.05v-62.28h28.26c9.9,0,17.01,6.39,17.01,15.75,0,6.84-3.87,12.15-9.81,14.4,7.47,1.71,12.42,7.74,12.42,15.75ZM361.6,224.29h-16.56v18.45h16.56c5.4,0,9.27-3.96,9.27-9.36s-3.87-9.09-9.27-9.09ZM373.12,260.02c0-5.49-3.96-9.45-9.27-9.45h-18.81v18.9h18.81c5.31,0,9.27-3.96,9.27-9.45Z"/>
    <path class="st0" d="M398.6,215.74v62.28h-9.18v-62.28h9.18Z"/>
    <path class="st0" d="M447.37,259.75c0,11.34-8.19,19.08-20.16,19.08s-20.25-7.74-20.25-19.08v-26.01h9.18v26.01c0,6.93,4.32,11.43,10.98,11.43s11.07-4.5,11.07-11.43v-26.01h9.18v26.01Z"/>
    <path class="st0" d="M500.11,258.76h-37.8c1.17,7.38,6.93,12.51,14.58,12.51,6.3,0,11.7-3.96,13.41-9.27h9.36c-2.52,9.81-11.97,16.83-22.86,16.83-13.68,0-23.67-9.63-23.67-22.95s9.99-22.95,23.67-22.95,23.49,9.63,23.58,23.04c0,.9-.09,1.89-.27,2.79ZM462.58,251.65h28.89c-1.53-6.57-7.29-11.16-14.58-11.16s-12.69,4.59-14.31,11.16Z"/>
    <path class="st0" d="M550.69,234.46h-9.54c-.27-7.2-5.31-11.52-13.14-11.52-7.29,0-12.42,3.69-12.42,9.72,0,15.48,36.72,3.69,36.72,27.54,0,11.52-9.99,18.63-24.3,18.63s-23.85-8.19-24.21-20.34h9.81c.09,7.11,5.49,12.33,14.85,12.33,8.19,0,13.86-4.05,13.86-10.26,0-15.48-36.72-4.14-36.72-27.36,0-11.25,9.27-18.27,22.68-18.27s22.14,7.56,22.41,19.53Z"/>
    <path class="st0" d="M604.15,256.15c0,13.05-9.27,22.68-22.32,22.68-6.48,0-11.97-2.7-15.48-6.93v24.12h-9.18v-40.14c0-13.32,9.81-22.95,23.49-22.95s23.49,9.63,23.49,23.22ZM594.7,255.88c0-8.73-5.94-14.94-14.13-14.94s-14.22,6.21-14.22,14.94,5.94,14.94,14.22,14.94,14.13-6.3,14.13-14.94Z"/>
    <path class="st0" d="M651.04,250.84v27.18h-9.27v-25.92c0-7.11-4.32-11.79-10.98-11.79s-11.25,4.68-11.25,11.79v25.92h-9.18v-62.28h9.18v24.66c2.88-4.77,7.83-7.47,13.95-7.47,10.17,0,17.55,7.2,17.55,17.91Z"/>
    <path class="st0" d="M703.69,258.76h-37.8c1.17,7.38,6.93,12.51,14.58,12.51,6.3,0,11.7-3.96,13.41-9.27h9.36c-2.52,9.81-11.97,16.83-22.86,16.83-13.68,0-23.67-9.63-23.67-22.95s9.99-22.95,23.67-22.95,23.49,9.63,23.58,23.04c0,.9-.09,1.89-.27,2.79ZM666.16,251.65h28.89c-1.53-6.57-7.29-11.16-14.58-11.16s-12.69,4.59-14.31,11.16Z"/>
    <path class="st0" d="M709.54,278.02v-27.18c0-10.8,7.38-17.1,20.16-17.1v7.74c-6.84,0-10.89,3.51-10.89,10.17v26.37h-9.27Z"/>
    <path class="st0" d="M777.22,258.76h-37.8c1.17,7.38,6.93,12.51,14.58,12.51,6.3,0,11.7-3.96,13.41-9.27h9.36c-2.52,9.81-11.97,16.83-22.86,16.83-13.68,0-23.67-9.63-23.67-22.95s9.99-22.95,23.67-22.95,23.49,9.63,23.58,23.04c0,.9-.09,1.89-.27,2.79ZM739.69,251.65h28.89c-1.53-6.57-7.29-11.16-14.58-11.16s-12.69,4.59-14.31,11.16Z"/>
  </g>
</svg>